<?xml version="1.0" encoding="UTF-8"?><svg id="Layer_1" xmlns="http://www.w3.org/2000/svg" viewBox="0 0 650 200"><defs><style>.cls-1{fill:#fff;stroke-width:0px;}</style></defs><polygon class="cls-1" points="110.0322 106.5209 86.709 106.5209 109.8284 133.5853 66.7233 133.5853 66.7233 106.3426 43.3214 133.7376 43.3164 133.7376 43.3164 153.4873 133.287 153.4873 133.287 133.7376 133.282 133.7376 110.0322 106.5209"/><polygon class="cls-1" points="43.3164 42.3041 43.3164 62.0537 43.3214 62.0537 66.7233 89.4488 66.7233 61.9014 110.1815 61.9014 110.1815 62.0537 109.9586 62.0537 86.3445 89.6972 109.6677 89.6972 133.282 62.0537 133.287 62.0537 133.287 42.3041 43.3164 42.3041"/><polygon class="cls-1" points="217.648 77.4374 217.648 66.3273 166.4613 66.3273 166.4613 79.5763 197.6045 79.5763 165.0691 118.3517 165.0691 129.4641 218.2282 129.4641 218.2282 116.2151 185.3334 116.2151 217.648 77.4374"/><polygon class="cls-1" points="285.4145 66.4429 265.7092 66.4429 243.0433 91.9155 243.0433 42.4283 225.1531 42.4283 225.1531 129.4641 243.0433 129.4641 243.0433 110.6829 250.0386 103.7855 267.2336 129.4641 286.6899 129.4641 261.6871 93.4559 285.4145 66.4429"/><polygon class="cls-1" points="345.2519 44.748 324.0314 104.7239 302.5877 44.748 283.22 44.748 316.5091 129.4641 331.5668 129.4641 364.6172 44.748 345.2519 44.748"/><path class="cls-1" d="M412.8559,75.041c-2.8416-2.9606-6.3252-5.3513-10.3553-7.108-4.0381-1.7578-8.6644-2.6493-13.7514-2.6493s-9.7482.8904-13.8601,2.6459c-4.1113,1.7555-7.6568,4.168-10.5373,7.1698-2.8817,3.0007-5.1116,6.5278-6.6291,10.4841-1.5141,3.9425-2.282,8.2021-2.282,12.6608,0,4.3099.7891,8.4756,2.3444,12.3827,1.5587,3.9162,3.8092,7.4033,6.6886,10.3616,2.8817,2.9618,6.4071,5.3342,10.4772,7.0497,4.0724,1.7155,8.6753,2.5864,13.6816,2.5864,6.9907,0,13.1088-1.5599,18.1849-4.6361,5.0824-3.0808,8.8435-7.092,11.1787-11.9203l.6106-1.2634-15.6998-4.3683-.3931.9682c-.9092,2.2374-2.579,3.9998-5.1059,5.388-2.5589,1.4054-5.3164,2.1183-8.1952,2.1183-1.8608,0-3.6742-.3262-5.3891-.9693-1.7166-.6443-3.2702-1.5839-4.6189-2.7924-1.351-1.2085-2.4714-2.6917-3.3291-4.4083-.6918-1.3836-1.1805-2.9549-1.458-4.6841h46.5706l.222-.8881c.174-.697.2804-1.5324.3244-2.5566.0383-.9442.0584-1.9261.0584-2.948,0-4.2206-.7473-8.3417-2.2213-12.2488-1.482-3.9197-3.6736-7.4101-6.5158-10.3742ZM374.1537,91.6191c.226-1.6068.6701-3.1071,1.3241-4.4713.8194-1.7121,1.886-3.1964,3.1695-4.4095,1.2789-1.2074,2.7758-2.1641,4.449-2.8405,1.6714-.6752,3.4951-1.0174,5.4206-1.0174,3.9832,0,7.2717,1.2463,10.0532,3.8086,2.4989,2.3049,3.9866,5.2357,4.5268,8.9299h-28.9431Z"/><path class="cls-1" d="M464.914,65.5148h-1.9146c-1.7527,0-3.5901.3571-5.4618,1.062-1.8322.6935-3.6616,1.6995-5.4372,2.9915-1.7647,1.284-3.4287,2.805-4.9451,4.5216-.6249.7073-1.2188,1.4546-1.779,2.2396v-10.0023h-16.6136v63.1368h17.8896v-37.6836c1.5261-3.1369,3.9265-5.4395,7.3306-7.0359,3.542-1.6606,7.6362-2.5406,12.1681-2.615l1.1524-.0195v-16.2691l-.9447-.1877c-.4664-.0916-.9527-.1385-1.4448-.1385Z"/><rect class="cls-1" x="473.662" y="42.4283" width="17.8896" height="17.7741"/><rect class="cls-1" x="473.662" y="66.3273" width="17.8896" height="63.1368"/><polygon class="cls-1" points="606.6836 66.3273 589.5493 66.3273 575.7287 111.0777 560.1531 66.3273 541.5865 66.3273 567.0693 130.8339 558.0896 159.9098 573.9146 159.9098 584.9735 128.3414 584.9591 128.3414 606.6836 66.3273"/><path class="cls-1" d="M506.9676,65.1554v4.4209h-8.0138v14.1771h8.0053v45.7106h17.8896v-45.7106h14.8501v-14.1771h-16.3246v-4.4209c0-4.7745,3.8847-8.6587,8.6593-8.6587h7.6654v-16.4065h-7.6654c-13.8212,0-25.0658,11.244-25.0658,25.0652Z"/></svg>